<svg xmlns="http://www.w3.org/2000/svg" xmlns:xlink="http://www.w3.org/1999/xlink" version="1.1" x="0px" y="0px" viewBox="0 0 100 125" enable-background="new 0 0 100 100" xml:space="preserve">
    <g>
        <g>
            <path fill="#000000" d="M50,96.5C24.4,96.5,3.5,75.6,3.5,50C3.5,24.4,24.4,3.5,50,3.5c25.6,0,46.5,20.9,46.5,46.5    C96.5,75.6,75.6,96.5,50,96.5z M50,6.5C26,6.5,6.5,26,6.5,50C6.5,74,26,93.5,50,93.5C74,93.5,93.5,74,93.5,50    C93.5,26,74,6.5,50,6.5z"/>  
        </g>
        <g>
            <g>
                <path fill="#000000" d="M50,78.9c-14.2,0-27.1-7.2-34.5-19.3c-0.4-0.7-0.2-1.6,0.5-2.1c0.7-0.4,1.6-0.2,2.1,0.5     c6.9,11.2,18.8,17.9,32,17.9S75.1,69.2,82,58c0.4-0.7,1.4-0.9,2.1-0.5c0.7,0.4,0.9,1.4,0.5,2.1C77.1,71.7,64.2,78.9,50,78.9z"/>
            </g>
        </g>
        <g>
            <g>
                <g>
                    <path fill="#000000" d="M36.1,45.1c-0.6,0-1.2-0.4-1.4-1c-1.3-3.4-3.5-5.6-5.8-5.6c-2.3,0-4.5,2.1-5.8,5.6      c-0.3,0.8-1.2,1.2-1.9,0.9c-0.8-0.3-1.2-1.2-0.9-1.9c1.8-4.7,5-7.5,8.6-7.5s6.9,2.8,8.6,7.5c0.3,0.8-0.1,1.6-0.9,1.9      C36.4,45.1,36.3,45.1,36.1,45.1z"/>
                </g>
            </g>
            <g>
                <g>
                    <path fill="#000000" d="M78.4,45.1c-0.6,0-1.2-0.4-1.4-1c-1.3-3.4-3.5-5.6-5.8-5.6s-4.5,2.1-5.8,5.6c-0.3,0.8-1.2,1.2-1.9,0.9      c-0.8-0.3-1.2-1.2-0.9-1.9c1.8-4.7,5-7.5,8.6-7.5c3.6,0,6.9,2.8,8.6,7.5c0.3,0.8-0.1,1.6-0.9,1.9C78.8,45.1,78.6,45.1,78.4,45.1      z"/>
                </g>
            </g>
        </g>
        </g>
</svg>